<svg xmlns="http://www.w3.org/2000/svg" width="41" height="37" viewBox="0 0 41 37" fill="none"><path d="M33.58 30.6719C25.4132 38.2981 12.7292 37.6621 5.31328 29.2577C-2.10579 20.8501 -1.49395 7.80523 6.67282 0.179027L10.1893 4.16445C4.15716 9.79762 3.7114 19.426 9.18807 25.6397L9.19122 25.6429C14.6682 31.8493 24.034 32.3224 30.0657 26.6897C36.0983 21.0565 36.5444 11.4212 31.0679 5.21437L31.0647 5.21122L34.9364 1.59607C42.3524 10.0005 41.7467 23.0457 33.58 30.6719Z" fill="url(#paint0_linear_1115_2427)"></path><path d="M33.58 30.6719C25.4132 38.2981 12.7292 37.6621 5.31328 29.2577C-2.10579 20.8501 -1.49395 7.80523 6.67282 0.179027L10.1893 4.16445C4.15716 9.79762 3.7114 19.426 9.18807 25.6397L9.19122 25.6429C14.6682 31.8493 24.034 32.3224 30.0657 26.6897C36.0983 21.0565 36.5444 11.4212 31.0679 5.21437L31.0647 5.21122L34.9364 1.59607C42.3524 10.0005 41.7467 23.0457 33.58 30.6719Z" fill="black" fill-opacity="0.2"></path><path d="M33.58 30.6719C25.4132 38.2981 12.7292 37.6621 5.31328 29.2577C-2.10579 20.8501 -1.49395 7.80523 6.67282 0.179027L10.1893 4.16445C4.15716 9.79762 3.7114 19.426 9.18807 25.6397L9.19122 25.6429C14.6682 31.8493 24.034 32.3224 30.0657 26.6897C36.0983 21.0565 36.5444 11.4212 31.0679 5.21437L31.0647 5.21122L34.9364 1.59607C42.3524 10.0005 41.7467 23.0457 33.58 30.6719Z" fill="black" fill-opacity="0.2"></path><path d="M31.0647 5.21122L27.5642 8.48018C23.8261 4.25077 17.4777 3.93236 13.3698 7.76838L10.1893 4.16445C16.2219 -1.46827 25.5815 -0.996013 31.0647 5.21122Z" fill="url(#paint1_linear_1115_2427)"></path><path d="M31.0647 5.21122L27.5642 8.48018C23.8261 4.25077 17.4777 3.93236 13.3698 7.76838L10.1893 4.16445C16.2219 -1.46827 25.5815 -0.996013 31.0647 5.21122Z" fill="black" fill-opacity="0.2"></path><path d="M31.0647 5.21122L27.5642 8.48018C23.8261 4.25077 17.4777 3.93236 13.3698 7.76838L10.1893 4.16445C16.2219 -1.46827 25.5815 -0.996013 31.0647 5.21122Z" fill="black" fill-opacity="0.2"></path><path d="M26.8859 23.0857C22.778 26.9218 16.4202 26.6062 12.688 22.3772L12.6853 22.3736C8.95334 18.1382 9.26186 11.6044 13.3698 7.76838L16.949 11.8252C16.7063 12.0521 16.4939 12.2936 16.3088 12.5586C16.2183 12.6867 16.1299 12.8179 16.0515 12.9596C15.9422 13.1477 15.8512 13.3434 15.7696 13.543C15.7313 13.6348 15.6984 13.727 15.6659 13.8187C15.6292 13.9269 15.5925 14.0411 15.5656 14.1533C15.5428 14.2357 15.5231 14.3223 15.5064 14.4051C15.4373 14.7415 15.4028 15.082 15.4025 15.4276C15.4032 15.5503 15.4071 15.6703 15.4166 15.7903C15.4222 15.8778 15.4306 15.9686 15.4419 16.0565C15.4518 16.128 15.4638 16.1963 15.4762 16.2651C15.4852 16.343 15.5036 16.4245 15.5219 16.4996C15.5708 16.7385 15.6382 16.9709 15.7282 17.1956C15.7303 17.218 15.7421 17.2379 15.7504 17.2611C15.7867 17.3564 15.8261 17.449 15.8721 17.5415C15.9722 17.7566 16.0881 17.9627 16.2202 18.16C16.2529 18.2102 16.2877 18.2636 16.3234 18.3106C16.3497 18.354 16.3822 18.3979 16.4147 18.4349C16.477 18.5185 16.5483 18.6066 16.6168 18.6842L16.6289 18.6977C18.3795 20.6818 21.375 20.8318 23.3063 19.029C25.2336 17.2291 25.3776 14.1475 23.6261 12.1634L23.6234 12.1598L27.5642 8.48018L27.567 8.48342C31.2989 12.7125 30.9938 19.2497 26.8859 23.0857Z" fill="url(#paint2_linear_1115_2427)"></path><path d="M26.8859 23.0857C22.778 26.9218 16.4202 26.6062 12.688 22.3772L12.6853 22.3736C8.95334 18.1382 9.26186 11.6044 13.3698 7.76838L16.949 11.8252C16.7063 12.0521 16.4939 12.2936 16.3088 12.5586C16.2183 12.6867 16.1299 12.8179 16.0515 12.9596C15.9422 13.1477 15.8512 13.3434 15.7696 13.543C15.7313 13.6348 15.6984 13.727 15.6659 13.8187C15.6292 13.9269 15.5925 14.0411 15.5656 14.1533C15.5428 14.2357 15.5231 14.3223 15.5064 14.4051C15.4373 14.7415 15.4028 15.082 15.4025 15.4276C15.4032 15.5503 15.4071 15.6703 15.4166 15.7903C15.4222 15.8778 15.4306 15.9686 15.4419 16.0565C15.4518 16.128 15.4638 16.1963 15.4762 16.2651C15.4852 16.343 15.5036 16.4245 15.5219 16.4996C15.5708 16.7385 15.6382 16.9709 15.7282 17.1956C15.7303 17.218 15.7421 17.2379 15.7504 17.2611C15.7867 17.3564 15.8261 17.449 15.8721 17.5415C15.9722 17.7566 16.0881 17.9627 16.2202 18.16C16.2529 18.2102 16.2877 18.2636 16.3234 18.3106C16.3497 18.354 16.3822 18.3979 16.4147 18.4349C16.477 18.5185 16.5483 18.6066 16.6168 18.6842L16.6289 18.6977C18.3795 20.6818 21.375 20.8318 23.3063 19.029C25.2336 17.2291 25.3776 14.1475 23.6261 12.1634L23.6234 12.1598L27.5642 8.48018L27.567 8.48342C31.2989 12.7125 30.9938 19.2497 26.8859 23.0857Z" fill="black" fill-opacity="0.2"></path><path d="M26.8859 23.0857C22.778 26.9218 16.4202 26.6062 12.688 22.3772L12.6853 22.3736C8.95334 18.1382 9.26186 11.6044 13.3698 7.76838L16.949 11.8252C16.7063 12.0521 16.4939 12.2936 16.3088 12.5586C16.2183 12.6867 16.1299 12.8179 16.0515 12.9596C15.9422 13.1477 15.8512 13.3434 15.7696 13.543C15.7313 13.6348 15.6984 13.727 15.6659 13.8187C15.6292 13.9269 15.5925 14.0411 15.5656 14.1533C15.5428 14.2357 15.5231 14.3223 15.5064 14.4051C15.4373 14.7415 15.4028 15.082 15.4025 15.4276C15.4032 15.5503 15.4071 15.6703 15.4166 15.7903C15.4222 15.8778 15.4306 15.9686 15.4419 16.0565C15.4518 16.128 15.4638 16.1963 15.4762 16.2651C15.4852 16.343 15.5036 16.4245 15.5219 16.4996C15.5708 16.7385 15.6382 16.9709 15.7282 17.1956C15.7303 17.218 15.7421 17.2379 15.7504 17.2611C15.7867 17.3564 15.8261 17.449 15.8721 17.5415C15.9722 17.7566 16.0881 17.9627 16.2202 18.16C16.2529 18.2102 16.2877 18.2636 16.3234 18.3106C16.3497 18.354 16.3822 18.3979 16.4147 18.4349C16.477 18.5185 16.5483 18.6066 16.6168 18.6842L16.6289 18.6977C18.3795 20.6818 21.375 20.8318 23.3063 19.029C25.2336 17.2291 25.3776 14.1475 23.6261 12.1634L23.6234 12.1598L27.5642 8.48018L27.567 8.48342C31.2989 12.7125 30.9938 19.2497 26.8859 23.0857Z" fill="black" fill-opacity="0.2"></path><path d="M23.6234 12.1598L20.1266 15.4256L16.949 11.8252C17.1918 11.5983 17.4464 11.4039 17.721 11.2401C17.8531 11.1598 17.9887 11.0827 18.1333 11.0155C18.2717 10.9479 18.4156 10.8876 18.5591 10.8395C18.655 10.8059 18.7535 10.7749 18.8525 10.7443C18.9732 10.7117 19.0974 10.6826 19.2213 10.6527C19.3129 10.635 19.4046 10.6238 19.4963 10.6116C19.5879 10.6003 19.6796 10.5886 19.771 10.5837C19.8875 10.5735 20.0099 10.5696 20.1297 10.5694C20.1576 10.5676 20.1896 10.569 20.2269 10.5708C20.3462 10.5706 20.4622 10.5796 20.5808 10.5921C20.7309 10.6061 20.8772 10.6292 21.024 10.6597C21.024 10.6597 21.0267 10.6565 21.0298 10.6596C21.1544 10.6853 21.2844 10.7174 21.4122 10.7531C21.5391 10.7889 21.6657 10.8305 21.7923 10.8791C21.9155 10.9304 22.039 10.9817 22.1583 11.0426C22.2815 11.1008 22.4005 11.1676 22.5168 11.2382C22.5749 11.2703 22.6299 11.3056 22.6849 11.3405C22.7606 11.3929 22.8367 11.4448 22.913 11.5036C22.9219 11.5076 22.9277 11.5139 22.934 11.5207C23.0098 11.5795 23.0856 11.6387 23.1583 11.6998C23.173 11.7106 23.1848 11.7241 23.2004 11.7348C23.2606 11.7893 23.3176 11.8405 23.3748 11.8987C23.3896 11.9154 23.4076 11.9293 23.4229 11.946C23.4886 12.014 23.5551 12.082 23.6173 12.1529C23.6204 12.156 23.6207 12.1562 23.6234 12.1598Z" fill="url(#paint3_linear_1115_2427)"></path><path d="M23.6234 12.1598L20.1266 15.4256L16.949 11.8252C17.1918 11.5983 17.4464 11.4039 17.721 11.2401C17.8531 11.1598 17.9887 11.0827 18.1333 11.0155C18.2717 10.9479 18.4156 10.8876 18.5591 10.8395C18.655 10.8059 18.7535 10.7749 18.8525 10.7443C18.9732 10.7117 19.0974 10.6826 19.2213 10.6527C19.3129 10.635 19.4046 10.6238 19.4963 10.6116C19.5879 10.6003 19.6796 10.5886 19.771 10.5837C19.8875 10.5735 20.0099 10.5696 20.1297 10.5694C20.1576 10.5676 20.1896 10.569 20.2269 10.5708C20.3462 10.5706 20.4622 10.5796 20.5808 10.5921C20.7309 10.6061 20.8772 10.6292 21.024 10.6597C21.024 10.6597 21.0267 10.6565 21.0298 10.6596C21.1544 10.6853 21.2844 10.7174 21.4122 10.7531C21.5391 10.7889 21.6657 10.8305 21.7923 10.8791C21.9155 10.9304 22.039 10.9817 22.1583 11.0426C22.2815 11.1008 22.4005 11.1676 22.5168 11.2382C22.5749 11.2703 22.6299 11.3056 22.6849 11.3405C22.7606 11.3929 22.8367 11.4448 22.913 11.5036C22.9219 11.5076 22.9277 11.5139 22.934 11.5207C23.0098 11.5795 23.0856 11.6387 23.1583 11.6998C23.173 11.7106 23.1848 11.7241 23.2004 11.7348C23.2606 11.7893 23.3176 11.8405 23.3748 11.8987C23.3896 11.9154 23.4076 11.9293 23.4229 11.946C23.4886 12.014 23.5551 12.082 23.6173 12.1529C23.6204 12.156 23.6207 12.1562 23.6234 12.1598Z" fill="black" fill-opacity="0.2"></path><path d="M23.6234 12.1598L20.1266 15.4256L16.949 11.8252C17.1918 11.5983 17.4464 11.4039 17.721 11.2401C17.8531 11.1598 17.9887 11.0827 18.1333 11.0155C18.2717 10.9479 18.4156 10.8876 18.5591 10.8395C18.655 10.8059 18.7535 10.7749 18.8525 10.7443C18.9732 10.7117 19.0974 10.6826 19.2213 10.6527C19.3129 10.635 19.4046 10.6238 19.4963 10.6116C19.5879 10.6003 19.6796 10.5886 19.771 10.5837C19.8875 10.5735 20.0099 10.5696 20.1297 10.5694C20.1576 10.5676 20.1896 10.569 20.2269 10.5708C20.3462 10.5706 20.4622 10.5796 20.5808 10.5921C20.7309 10.6061 20.8772 10.6292 21.024 10.6597C21.024 10.6597 21.0267 10.6565 21.0298 10.6596C21.1544 10.6853 21.2844 10.7174 21.4122 10.7531C21.5391 10.7889 21.6657 10.8305 21.7923 10.8791C21.9155 10.9304 22.039 10.9817 22.1583 11.0426C22.2815 11.1008 22.4005 11.1676 22.5168 11.2382C22.5749 11.2703 22.6299 11.3056 22.6849 11.3405C22.7606 11.3929 22.8367 11.4448 22.913 11.5036C22.9219 11.5076 22.9277 11.5139 22.934 11.5207C23.0098 11.5795 23.0856 11.6387 23.1583 11.6998C23.173 11.7106 23.1848 11.7241 23.2004 11.7348C23.2606 11.7893 23.3176 11.8405 23.3748 11.8987C23.3896 11.9154 23.4076 11.9293 23.4229 11.946C23.4886 12.014 23.5551 12.082 23.6173 12.1529C23.6204 12.156 23.6207 12.1562 23.6234 12.1598Z" fill="black" fill-opacity="0.2"></path><path d="M10.1893 4.16445L6.67282 0.179027C-1.49395 7.80523 -2.10579 20.8501 5.31328 29.2577C12.7292 37.6621 25.4132 38.2981 33.58 30.6719C41.7467 23.0457 42.3524 10.0005 34.9364 1.59607L31.0647 5.21122M10.1893 4.16445C4.15716 9.79762 3.7114 19.426 9.18807 25.6397L9.19122 25.6429C14.6682 31.8493 24.034 32.3224 30.0657 26.6897C36.0983 21.0565 36.5444 11.4212 31.0679 5.21437L31.0647 5.21122M10.1893 4.16445L13.3698 7.76838M10.1893 4.16445C16.2219 -1.46827 25.5815 -0.996013 31.0647 5.21122M31.0647 5.21122L27.5642 8.48018M27.5642 8.48018C23.8261 4.25077 17.4777 3.93236 13.3698 7.76838M27.5642 8.48018L23.6234 12.1598M27.5642 8.48018L27.567 8.48342C31.2989 12.7125 30.9938 19.2497 26.8859 23.0857C22.778 26.9218 16.4202 26.6062 12.688 22.3772L12.6853 22.3736C8.95334 18.1382 9.26186 11.6044 13.3698 7.76838M13.3698 7.76838L16.949 11.8252M16.949 11.8252C16.7063 12.0521 16.4939 12.2936 16.3088 12.5586C16.2183 12.6867 16.1299 12.8179 16.0515 12.9596C15.9422 13.1477 15.8512 13.3434 15.7696 13.543C15.7313 13.6348 15.6984 13.727 15.6659 13.8187C15.6292 13.9269 15.5925 14.0411 15.5656 14.1533C15.5428 14.2357 15.5231 14.3223 15.5064 14.4051C15.4373 14.7415 15.4028 15.082 15.4025 15.4276C15.4032 15.5503 15.4071 15.6703 15.4166 15.7903C15.4222 15.8778 15.4306 15.9686 15.4419 16.0565C15.4518 16.128 15.4638 16.1963 15.4762 16.2651C15.4852 16.343 15.5036 16.4245 15.5219 16.4996C15.5708 16.7385 15.6382 16.9709 15.7282 17.1956C15.7303 17.218 15.7421 17.2379 15.7504 17.2611C15.7867 17.3564 15.8261 17.449 15.8721 17.5415C15.9722 17.7566 16.0881 17.9627 16.2202 18.16C16.2529 18.2102 16.2877 18.2636 16.3234 18.3106C16.3497 18.354 16.3822 18.3979 16.4147 18.4349C16.477 18.5185 16.5483 18.6066 16.6168 18.6842L16.6289 18.6977C18.3795 20.6818 21.375 20.8318 23.3063 19.029C25.2336 17.2291 25.3776 14.1475 23.6261 12.1634L23.6234 12.1598M16.949 11.8252L20.1266 15.4256L23.6234 12.1598M16.949 11.8252C17.1918 11.5983 17.4464 11.4039 17.721 11.2401C17.8531 11.1598 17.9887 11.0827 18.1333 11.0155C18.2717 10.9479 18.4156 10.8876 18.5591 10.8395C18.655 10.8059 18.7535 10.7749 18.8525 10.7443C18.9732 10.7117 19.0974 10.6826 19.2213 10.6527C19.3129 10.635 19.4046 10.6238 19.4963 10.6116C19.5879 10.6003 19.6796 10.5886 19.771 10.5837C19.8875 10.5735 20.0099 10.5696 20.1297 10.5694C20.1576 10.5676 20.1896 10.569 20.2269 10.5708C20.3462 10.5706 20.4622 10.5796 20.5808 10.5921C20.7309 10.6061 20.8772 10.6292 21.024 10.6597C21.024 10.6597 21.0267 10.6565 21.0298 10.6596C21.1544 10.6853 21.2844 10.7174 21.4122 10.7531C21.5391 10.7889 21.6657 10.8305 21.7923 10.8791C21.9155 10.9304 22.039 10.9817 22.1583 11.0426C22.2815 11.1008 22.4005 11.1676 22.5168 11.2382C22.5749 11.2703 22.6299 11.3056 22.6849 11.3405C22.7606 11.3929 22.8367 11.4448 22.913 11.5036C22.9219 11.5076 22.9277 11.5139 22.934 11.5207C23.0098 11.5795 23.0856 11.6387 23.1583 11.6998C23.173 11.7106 23.1848 11.7241 23.2004 11.7348C23.2606 11.7893 23.3176 11.8405 23.3748 11.8987C23.3896 11.9154 23.4076 11.9293 23.4229 11.946C23.4886 12.014 23.5551 12.082 23.6173 12.1529C23.6204 12.156 23.6207 12.1562 23.6234 12.1598" stroke="#9CA3AF" stroke-width="0.25"></path><defs><linearGradient id="paint0_linear_1115_2427" x1="9.20378" y1="11.7154" x2="44.0488" y2="55.5052" gradientUnits="userSpaceOnUse"><stop stop-color="#08FF8B"></stop><stop offset="0.568416" stop-color="#1DBF73"></stop><stop offset="0.973031" stop-color="#197248"></stop></linearGradient><linearGradient id="paint1_linear_1115_2427" x1="9.20378" y1="11.7154" x2="44.0488" y2="55.5052" gradientUnits="userSpaceOnUse"><stop stop-color="#08FF8B"></stop><stop offset="0.568416" stop-color="#1DBF73"></stop><stop offset="0.973031" stop-color="#197248"></stop></linearGradient><linearGradient id="paint2_linear_1115_2427" x1="9.20378" y1="11.7154" x2="44.0488" y2="55.5052" gradientUnits="userSpaceOnUse"><stop stop-color="#08FF8B"></stop><stop offset="0.568416" stop-color="#1DBF73"></stop><stop offset="0.973031" stop-color="#197248"></stop></linearGradient><linearGradient id="paint3_linear_1115_2427" x1="9.20378" y1="11.7154" x2="44.0488" y2="55.5052" gradientUnits="userSpaceOnUse"><stop stop-color="#08FF8B"></stop><stop offset="0.568416" stop-color="#1DBF73"></stop><stop offset="0.973031" stop-color="#197248"></stop></linearGradient></defs></svg>